<?xml version="1.0" encoding="utf-8"?>
<!-- Generator: Adobe Illustrator 16.0.0, SVG Export Plug-In . SVG Version: 6.00 Build 0)  -->
<!DOCTYPE svg PUBLIC "-//W3C//DTD SVG 1.1//EN" "http://www.w3.org/Graphics/SVG/1.1/DTD/svg11.dtd">
<svg version="1.1" id="Calque_1" xmlns="http://www.w3.org/2000/svg" xmlns:xlink="http://www.w3.org/1999/xlink" x="0px" y="0px"
	 width="273px" height="246.167px" viewBox="0 0 273 246.167" enable-background="new 0 0 273 246.167" xml:space="preserve">
<path fill="#4EB95D" stroke="#FFFFFF" d="M74.901,48.8l0.237,0.635l0.023,0.001C75.112,49.321,75.025,49.105,74.901,48.8z"/>
<path fill="#4EB95D" stroke="#FFFFFF" d="M74.556,114.952c-0.491-0.205-0.865-0.329-1.158-0.379c-0.274-0.048-0.503-0.13-0.67-0.243
	l3.657,2.04C75.821,115.698,75.211,115.221,74.556,114.952z"/>
<polygon fill="#4EB95D" stroke="#FFFFFF" points="151.423,99.913 147.748,99.506 146.523,94.605 143.258,95.422 138.357,92.157 
	131.418,94.605 132.235,98.28 126.52,98.688 125.703,101.139 130.602,106.443 130.602,110.527 127.745,112.161 130.194,120.732 
	121.621,130.939 122.846,138.289 127.336,138.289 131.827,132.166 135.501,139.105 136.725,134.207 141.217,132.98 148.157,136.248 
	157.546,128.083 149.382,123.591 147.748,105.221 151.423,103.18 "/>
<polygon fill="#4EB95D" stroke="#FFFFFF" points="127.745,112.161 130.602,110.527 130.602,106.443 125.703,101.139 
	108.965,101.139 103.658,104.813 105.699,108.484 100.8,114.201 110.598,120.326 109.374,124.408 112.23,129.309 117.13,132.574 
	121.621,130.939 130.194,120.732 "/>
<polygon fill="#4EB95D" stroke="#FFFFFF" points="165.305,74.192 163.671,67.252 151.423,68.478 144.893,59.904 139.175,59.496 
	138.768,63.17 140.398,67.661 135.501,72.56 138.357,76.643 136.317,77.05 138.357,92.157 143.258,95.422 146.523,94.605 
	147.748,99.506 151.423,99.913 151.423,103.18 147.748,105.221 155.098,107.669 157.139,105.221 162.037,104.813 164.895,99.913 
	170.611,101.954 169.794,90.115 172.531,76.043 169.387,78.684 "/>
<path fill="#4EB95D" stroke="#FFFFFF" d="M149.382,39.492l-4.489,20.413l6.53,8.573l12.248-1.225l1.634,6.94l4.082,4.491
	l3.146-2.641l0.119-0.625l-0.119,0.625l7.061-5.933l-1.633-6.124l-11.84-11.022L168.568,35l4.431-1.107l-2.892-3.349l-3.602-0.183
	c-0.042-1.378-0.311-2.759-0.813-4.108c-0.494-1.348-1.307-2.515-2.416-3.497c-0.078-0.004-0.158,0.043-0.248,0.151
	c-0.094,0.1-0.168,0.182-0.205,0.25c-0.111,0.133-0.278,0.375-0.512,0.718c-0.234,0.343-0.472,0.703-0.725,1.08
	c-0.24,0.376-0.484,0.728-0.71,1.054c-0.231,0.326-0.407,0.542-0.519,0.64c-0.437,0.22-0.821,0.348-1.159,0.365
	c-0.339,0.018-0.734,0.015-1.192-0.009c-0.056-0.003-0.107-0.013-0.16-0.024l-4.386,11.694L149.382,39.492z"/>
<path fill="#4EB95D" stroke="#FFFFFF" d="M151.423,23.978l5.122,1.206c-0.251-0.763-0.48-1.591-0.688-2.482
	c-0.239-1.077-0.502-2.05-0.776-2.938c-0.274-0.888-0.626-1.338-1.048-1.36l-4.987-0.253c-0.149-0.466-0.458-0.863-0.926-1.189
	c-0.452-0.317-0.974-0.612-1.55-0.875c-0.566-0.254-1.148-0.509-1.743-0.746c-0.584-0.254-1.063-0.521-1.447-0.817
	c0.015-0.225-0.004-0.623-0.041-1.231c-0.038-0.607-0.146-1.219-0.305-1.85c-0.157-0.631-0.39-1.188-0.685-1.679
	c-0.295-0.5-0.674-0.76-1.132-0.784l-0.265-0.013l-1.825,0.34l-0.209-0.011c-0.774-0.04-1.418-0.323-1.929-0.842
	c-0.501-0.527-0.929-1.12-1.294-1.796c-0.347-0.675-0.692-1.35-1.004-2.023c-0.33-0.666-0.702-1.16-1.154-1.459
	c-0.103-0.005-0.327-0.034-0.653-0.086c-0.344-0.052-0.655-0.084-0.931-0.099l-0.422-0.021c-0.89-0.045-1.947,0.013-3.176,0.187
	c-1.228,0.162-2.422,0.474-3.55,0.927c-1.148,0.46-2.124,1.078-2.941,1.85c-0.817,0.771-1.257,1.744-1.316,2.909
	c-0.02,0.389,0.04,0.747,0.188,1.073c0.139,0.328,0.295,0.655,0.452,0.975c0.157,0.337,0.313,0.656,0.452,0.983
	c0.139,0.327,0.209,0.668,0.191,1.022c-0.022,0.422-0.102,0.964-0.22,1.607c-0.112,0.609-0.26,1.268-0.436,1.966l16.366,6.694
	L151.423,23.978z"/>
<polygon fill="#4EB95D" stroke="#FFFFFF" points="126.52,98.688 132.235,98.28 131.418,94.605 138.357,92.157 136.317,77.05 
	138.357,76.643 135.501,72.56 140.398,67.661 138.768,63.17 131.011,63.987 130.194,59.496 124.071,59.904 122.846,56.639 
	121.212,56.23 118.763,47.249 108.149,50.515 110.598,55.821 107.332,60.721 105.291,71.744 98.759,73.376 95.493,82.358 
	107.332,91.748 108.965,101.139 125.703,101.139 "/>
<path fill="#4EB95D" stroke="#FFFFFF" d="M74.808,48.57c0.035,0.084,0.064,0.157,0.094,0.23l-0.603-1.615
	C74.473,47.679,74.639,48.137,74.808,48.57z"/>
<path fill="#4EB95D" stroke="#FFFFFF" d="M102.841,46.024l5.308,4.491l10.614-3.267l-0.816-3.266l5.308-4.083l-2.042-10.206
	l2.042-0.817l-5.128-6.152c-0.156,0.148-0.315,0.283-0.48,0.399c-0.628,0.444-1.513,0.832-2.664,1.172
	c-1.369,0.389-2.956,0.775-4.766,1.16c-1.811,0.393-3.529,0.842-5.148,1.365c-1.618,0.524-2.999,1.129-4.124,1.833
	c-1.144,0.704-1.732,1.574-1.785,2.592c0.205,0.235,0.335,0.381,0.401,0.453l1.734,1.473l0.454,0.438
	c0.029,0.114,0.042,0.193,0.039,0.228c-0.001,0.035-0.002,0.069-0.023,0.12c-0.021,0.06-0.04,0.101-0.041,0.136
	c-0.419,0.011-0.828,0.069-1.228,0.162l2.345,1.564V46.024z"/>
<path fill="#4EB95D" stroke="#FFFFFF" d="M170.611,101.954l-5.719-2.041l-2.855,4.899l-4.898,0.407l-2.041,2.448l-7.35-2.448
	l1.634,18.371l8.164,4.492l-9.39,8.164l4.084,10.612l8.64,2.293l-0.067-0.25l0.067,0.25l11.363,3.015l4.082-3.672l-4.897-3.269
	l5.307-6.531l8.981-2.448l-1.634-5.31h9.105c0.316-0.188,0.652-0.386,1.016-0.593c0.597-0.342,1.195-0.709,1.777-1.104
	c0.59-0.395,1.166-0.799,1.715-1.221c0.548-0.414,1.039-0.855,1.451-1.328c0.041-0.145,0.063-0.23,0.063-0.268
	c0.004-0.041-0.011-0.111-0.04-0.217l-3.22-7.813c-0.06-0.252-0.214-0.427-0.452-0.506c-0.064-0.039-0.251-0.151-0.534-0.34
	c-0.304-0.197-0.62-0.412-0.955-0.637c-0.352-0.234-0.659-0.432-0.954-0.611c-0.297-0.171-0.488-0.293-0.586-0.367l3.735-2.526
	c0.188-0.095,0.329-0.226,0.442-0.401c-0.404-1.05-0.828-2.107-1.275-3.172c-0.438-1.075-0.946-2.115-1.512-3.138
	c-0.571-1.015-1.205-1.983-1.904-2.882c-0.697-0.91-1.484-1.736-2.365-2.491l-0.215-0.013l-0.268-0.012
	c-1.262,0.473-2.127,0.981-2.571,1.547c-0.46,0.557-0.782,1.12-0.994,1.682c-0.209,0.551-0.417,1.086-0.642,1.574
	c-0.217,0.511-0.723,0.916-1.516,1.23c-0.188,0.068-0.47,0.002-0.84-0.173c-0.391-0.175-0.66-0.275-0.844-0.284
	c0.054-1.054,0.302-2.027,0.725-2.887c0.285-0.553,0.604-1.085,0.938-1.605l-5.407,2.833L170.611,101.954z"/>
<path fill="#4EB95D" stroke="#FFFFFF" d="M82.021,52.556h12.656l1.633,3.675l4.082-1.225l6.941,5.716l3.266-4.9l-2.449-5.306
	l-5.308-4.491V35.818l-2.345-1.564c-0.476,0.111-0.94,0.275-1.385,0.502c-0.817,0.426-1.488,1.023-2.03,1.818
	c-0.137-0.007-0.371-0.019-0.69-0.018c-0.312,0.001-0.658,0.001-1.039,0c-0.363-0.001-0.709-0.001-1.038-0.001
	c-0.313,0.01-0.528,0.007-0.631,0.002c-1.2-0.061-2.312-0.307-3.345-0.758c-1.016-0.441-2.013-0.907-2.975-1.397
	c-0.978-0.5-1.969-0.93-2.995-1.328c-1.02-0.381-2.144-0.559-3.347-0.517c-0.632-0.845-1.043-1.627-1.233-2.347
	c-0.205-0.72-0.297-1.606-0.323-2.664l-0.474-0.025L78.561,27.5l-2.3,0.298L76,27.787c-0.536-0.027-0.936-0.133-1.213-0.321
	c-0.267-0.186-0.568-0.401-0.894-0.634c-0.326-0.224-0.737-0.444-1.238-0.651c-0.509-0.198-1.22-0.322-2.144-0.368
	c-0.077,1.518,0.005,2.803,0.236,3.871c0.223,1.049,0.518,2.058,0.851,3.019c0.349,0.953,0.697,1.939,1.051,2.978
	c0.354,1.022,0.622,2.264,0.79,3.726c0.024,0.184,0.041,0.539,0.049,1.067c0.016,0.529,0.021,1.1,0.025,1.705
	c0.005,0.606,0.01,1.169,0.027,1.697c0.006,0.537,0.026,0.849,0.054,0.964c0.025,0.183,0.105,0.498,0.247,0.937
	c0.132,0.458,0.282,0.923,0.456,1.408L74.9,48.8c0.124,0.305,0.21,0.521,0.261,0.636l-0.023-0.001l1.166,3.121H82.021z"/>
<path fill="#4EB95D" stroke="#FFFFFF" d="M192.451,68.887l3.674-6.94l-1.021-4.899l2.246-1.429l-0.203-5.104l-2.246,1.429
	l-1.838-2.449l1.431-3.266l6.735,2.857l1.795-4.307c-0.021-0.046-0.043-0.089-0.063-0.137c-0.146-0.354-0.287-0.68-0.427-0.973
	c-0.142-0.283-0.394-0.443-0.755-0.461l-0.209-0.011c-0.141,0.061-0.422,0.16-0.836,0.303c-0.414,0.144-0.854,0.286-1.295,0.445
	c-0.459,0.15-0.881,0.302-1.277,0.455c-0.396,0.17-0.646,0.296-0.766,0.393c-0.703-0.779-1.584-1.326-2.623-1.647
	c-1.058-0.321-2.088-0.468-3.119-0.452c-0.49-0.699-0.924-1.405-1.301-2.116c-0.371-0.711-0.772-1.354-1.199-1.947
	c-0.438-0.584-0.959-1.069-1.568-1.464c-0.622-0.377-1.426-0.6-2.426-0.65l-0.416-0.021l-3.227,0.746l-0.221-0.012l-0.206-0.01
	c-0.065-0.039-0.233-0.15-0.483-0.354c-0.268-0.188-0.533-0.392-0.824-0.621c-0.289-0.231-0.557-0.436-0.815-0.622
	c-0.258-0.194-0.426-0.307-0.491-0.354l-0.416-0.021c-0.568-0.029-1.125,0.029-1.662,0.158c-0.53,0.137-1.088,0.187-1.655,0.158
	c-0.07-0.003-0.192-0.026-0.361-0.071L173,33.894L168.568,35l-2.448,17.964l11.839,11.022l1.633,6.124l11.982,1.933L192.451,68.887z
	"/>
<path fill="#4EB95D" stroke="#FFFFFF" d="M207.824,45.959c-1.148,0.145-2.311,0.186-3.483,0.131
	c-0.425-0.021-0.735-0.174-0.931-0.46c-0.176-0.263-0.321-0.545-0.453-0.855l-1.777,4.314l-6.748-2.835l-1.418,3.272l1.848,2.442
	l2.24-1.437l0.223,5.103l-2.24,1.437l1.039,4.895l-3.648,6.954l-0.867,3.16l0.676,0.106l0.561,1.181l1.896,1.058l-0.57,1.734
	l2.125,4.477c0.117-0.101,0.29-0.152,0.529-0.141c0.604,0.028,1.32,0.227,2.152,0.584c0.83,0.36,1.508,0.678,2.029,0.944
	c0.251-0.162,0.573-0.432,0.965-0.802c0.389-0.37,0.764-0.778,1.119-1.228c0.36-0.432,0.666-0.886,0.913-1.341
	c0.253-0.438,0.388-0.847,0.399-1.192c0.063-1.277,0.031-2.507-0.084-3.672c-0.127-1.183-0.154-2.438-0.092-3.776l0.047-1.017
	c0.023-0.492,0.058-0.993,0.1-1.501c0.04-0.517,0.07-1,0.095-1.466l0.048-1.001c0.649-1.146,1.159-2.385,1.5-3.736
	c0.356-1.342,0.729-2.613,1.139-3.795c0.303-1.085,0.688-2.088,1.154-3c0.467-0.92,0.924-1.825,1.373-2.729
	c0.459-0.904,0.848-1.819,1.17-2.756c0.33-0.945,0.524-2,0.582-3.164C210.186,45.785,208.988,45.824,207.824,45.959z"/>
<path fill="#4EB95D" stroke="#FFFFFF" d="M198.586,83.658c-0.322-0.129-0.697-0.235-1.089-0.351
	c-0.41-0.106-0.765-0.271-1.101-0.505c-0.316-0.232-0.469-0.638-0.438-1.242c0.013-0.196,0.042-0.372,0.083-0.543
	c0.02-0.076,0.036-0.154,0.063-0.228c0.024-0.071,0.071-0.126,0.127-0.175l-2.11-4.485l0.577-1.731l-1.893-1.065l-0.557-1.181
	l-0.674-0.109l-11.982-1.933l-7.061,5.933l-2.737,14.072l0.817,11.839l7.348,3.267l5.408-2.832c0.186-0.291,0.369-0.582,0.572-0.863
	c0.578-0.793,1.154-1.567,1.746-2.333c0.584-0.767,1.066-1.607,1.426-2.505c0.035-0.034,0.096-0.205,0.183-0.528
	c0.093-0.306,0.188-0.646,0.294-1.023c0.104-0.358,0.219-0.698,0.318-0.987c0.101-0.298,0.188-0.476,0.262-0.542
	c1.307-1.889,2.868-3.505,4.691-4.866c1.816-1.361,3.713-2.581,5.688-3.647c0.072-0.032,0.152-0.105,0.253-0.204
	c0.093-0.099,0.149-0.183,0.195-0.25c0.039-0.102,0.062-0.179,0.063-0.213C199.078,84.037,198.928,83.788,198.586,83.658z"/>
<path fill="#4EB95D" stroke="#FFFFFF" d="M91.002,126.451l9.798-12.25l4.899-5.717l-2.042-3.672l5.307-3.674l-1.633-9.392
	l-11.839-9.39l-14.289,2.858l3.674,13.064l-5.307-1.226l-5.488,3.672c0.187,0.24,0.335,0.498,0.438,0.771
	c0.174,0.475,0.25,1.042,0.233,1.715c-0.017,0.674-0.05,1.503-0.101,2.495c-0.032,0.639-0.157,1.213-0.383,1.729
	c-0.224,0.523-0.467,1.047-0.744,1.562c-0.147,0.282-0.287,0.567-0.421,0.856c-0.002,0.061-0.001,0.127-0.005,0.188
	c-0.024-0.001-0.048-0.008-0.073-0.012c-0.081,0.182-0.164,0.361-0.239,0.548c-0.227,0.544-0.351,1.106-0.381,1.712
	c-0.036,0.706-0.043,1.191,0.003,1.463c0.039,0.27,0.142,0.457,0.317,0.576c0.167,0.113,0.396,0.195,0.67,0.242
	c0.292,0.051,0.667,0.175,1.158,0.38c0.655,0.269,1.265,0.745,1.829,1.418l5.636,3.14L91.002,126.451z"/>
<path fill="#4EB95D" stroke="#FFFFFF" d="M84.878,98.28l-3.674-13.064l14.289-2.858l3.266-8.982l6.532-1.633l2.042-11.022
	l-6.941-5.716L96.31,56.23l-1.633-3.675H82.021l-2.858,13.472l-20.641,8.747c0,0.005-0.002,0.02-0.002,0.025
	c-0.047,0.065-0.193,0.214-0.48,0.425c-0.271,0.22-0.434,0.358-0.472,0.426c-0.005,0.112-0.033,0.31-0.081,0.584
	c-0.049,0.283-0.099,0.583-0.149,0.893c-0.051,0.326-0.1,0.618-0.147,0.875c-0.048,0.266-0.074,0.446-0.081,0.55l8.423,0.426
	l-0.034,0.691c-0.911-0.149-1.797-0.056-2.646,0.298c-0.849,0.338-1.5,0.928-1.975,1.752c0.672,0.033,1.264,0.322,1.79,0.868
	c0.526,0.537,0.95,1.054,1.28,1.518c-0.847,0.494-1.377,1.083-1.637,1.752c-0.242,0.679-0.388,1.485-0.434,2.401
	c-0.034,0.673,0.065,1.284,0.306,1.823c0.232,0.54,0.534,1.075,0.871,1.594c0.355,0.501,0.675,1.029,0.994,1.556
	c0.302,0.534,0.532,1.117,0.673,1.764l7.031,3.974c0.825,0.466,1.452,0.888,1.874,1.262c0.179,0.157,0.328,0.322,0.458,0.496
	l5.488-3.671L84.878,98.28z"/>
<path fill="#4EB95D" stroke="#FFFFFF" d="M185.716,136.248l-8.981,2.449l-5.307,6.531l4.897,3.268l-4.082,3.672l-11.363-3.014
	l1.565,5.873l-8.967,11.123c0.354,0.199,0.771,0.316,1.229,0.342c0.068,0,0.191-0.01,0.374-0.043l2.815-2.092
	c0.453,0.24,0.729,0.584,0.854,1.059c0.111,0.463,0.238,0.93,0.354,1.367c0.115,0.453,0.348,0.855,0.685,1.211
	c0.338,0.346,0.976,0.553,1.94,0.6c0.812,0.043,1.627,0.007,2.447-0.116c0.816-0.115,1.666-0.149,2.555-0.104
	c0.185,0.01,0.478,0.033,0.906,0.07c0.414,0.037,0.715,0.063,0.896,0.07c0.23,0.869,0.582,1.5,1.021,1.912
	c0.438,0.41,0.957,0.732,1.543,0.961c0.586,0.221,1.233,0.391,1.92,0.514c0.678,0.131,1.387,0.313,2.116,0.564
	c0.597,0.211,1.117,0.506,1.581,0.902c0.455,0.395,0.947,0.748,1.451,1.059c0.109,0.008,0.294,0.018,0.563,0.049
	c0.265,0.039,0.541,0.063,0.816,0.074c0.282,0.014,0.561,0.037,0.826,0.068c0.258,0.028,0.432,0.047,0.498,0.051
	c0.175,0.008,0.406,0.012,0.691,0.01c0.278-0.004,0.571,0.002,0.849,0.018c0.317,0.016,0.587,0.021,0.796,0.008
	c0.218-0.008,0.345-0.002,0.381,0c0.035,0.002,0.191-0.061,0.479-0.191c0.301-0.122,0.638-0.288,1.047-0.475
	c0.389-0.195,0.796-0.373,1.221-0.553c0.406-0.178,0.725-0.313,0.945-0.4c0.258-0.137,0.593-0.258,1.005-0.373
	c0.413-0.119,0.817-0.254,1.215-0.391c0.396-0.145,0.752-0.324,1.063-0.533c0.314-0.219,0.476-0.461,0.488-0.754
	c0.018-0.381,0.001-0.691-0.058-0.93c-0.066-0.236-0.171-0.545-0.325-0.941c0.107-0.1,0.342-0.252,0.684-0.449
	c0.354-0.19,0.729-0.396,1.121-0.604c0.406-0.213,0.778-0.41,1.152-0.605c0.355-0.198,0.615-0.323,0.768-0.385
	c0.394-0.268,0.756-0.596,1.053-0.984c0.305-0.393,0.593-0.801,0.854-1.202c0.271-0.42,0.56-0.802,0.854-1.187
	c0.314-0.375,0.66-0.692,1.07-0.949c1.271-0.827,2.435-1.582,3.455-2.272c1.028-0.692,1.905-1.452,2.643-2.289
	c0.734-0.825,1.303-1.803,1.723-2.913c0.4-1.113,0.65-2.479,0.734-4.107l-7.051-0.357c-0.428-0.799-0.873-1.531-1.375-2.195
	c-0.506-0.658-0.963-1.338-1.389-2.01c-0.434-0.68-0.777-1.391-1.031-2.129c-0.267-0.73-0.371-1.586-0.322-2.535
	c0.004-0.076,0.029-0.273,0.08-0.584c0.037-0.031,0.121-0.148,0.263-0.357c0.132-0.209,0.28-0.428,0.446-0.67
	c0.18-0.24,0.328-0.475,0.471-0.694c0.132-0.218,0.217-0.369,0.254-0.437l0.018-0.27l0.01-0.217
	c-0.277-0.824-0.563-1.377-0.875-1.66c-0.299-0.283-0.601-0.473-0.896-0.572c-0.297-0.102-0.588-0.203-0.859-0.285
	c-0.278-0.084-0.555-0.352-0.808-0.785c0.001-0.035-0.028-0.143-0.071-0.324c-0.043-0.186-0.084-0.377-0.125-0.586
	c-0.041-0.219-0.095-0.522-0.145-0.916c-0.029-0.104-0.083-0.271-0.157-0.483c-0.084-0.221-0.159-0.438-0.259-0.678
	c-0.104-0.24-0.176-0.47-0.232-0.679c-0.062-0.211-0.104-0.379-0.135-0.483c0.188-0.115,0.393-0.237,0.6-0.362h-9.104
	L185.716,136.248z"/>
<path fill="#4EB95D" stroke="#FFFFFF" d="M82.021,52.556h-5.716l-1.166-3.121l-0.555-0.029c-0.285-0.014-0.578-0.021-0.872-0.018
	c-0.313,0.002-0.598,0.005-0.883-0.009l-0.587-0.03c-0.88-0.045-1.653-0.171-2.318-0.36c-0.665-0.189-1.403-0.313-2.214-0.354
	l-0.155-0.008l-0.989,1.758c-0.76-0.566-1.317-0.974-1.705-1.202c-0.369-0.227-0.897-0.366-1.57-0.4
	c-0.493-0.025-0.956,0.048-1.362,0.226c-0.425,0.178-0.815,0.374-1.207,0.605c-0.375,0.223-0.766,0.428-1.138,0.6
	c-0.39,0.179-0.774,0.255-1.155,0.235c-0.604-0.03-1.062-0.192-1.394-0.495c-0.313-0.302-0.563-0.661-0.742-1.067
	c-0.169-0.423-0.267-0.87-0.295-1.348c-0.036-0.485-0.057-0.918-0.072-1.31c-0.586-0.385-1.098-0.705-1.544-0.953
	c-0.454-0.256-0.892-0.495-1.32-0.732c-0.429-0.238-0.882-0.521-1.341-0.864c-0.457-0.343-0.955-0.792-1.498-1.349l-0.206-0.01
	c-0.786-0.041-1.421,0.049-1.9,0.268c-0.495,0.226-0.925,0.497-1.295,0.816c-0.371,0.318-0.751,0.637-1.14,0.979
	c-0.389,0.326-0.869,0.596-1.45,0.774l-0.922,0.429c-0.072,0.04-0.234,0.188-0.473,0.452c-0.257,0.282-0.402,0.413-0.479,0.409
	c-0.289,0.054-0.544-0.028-0.785-0.23c-0.241-0.202-0.47-0.44-0.708-0.694c-0.237-0.271-0.485-0.509-0.758-0.73
	c-0.275-0.229-0.588-0.358-0.942-0.377c-0.172-0.009-0.406-0.003-0.692,0c-0.276,0.003-0.458-0.006-0.527-0.01
	c-0.078-0.003-0.218,0.041-0.429,0.116c-0.22,0.076-0.458,0.168-0.732,0.283c-0.275,0.117-0.522,0.208-0.733,0.285
	c-0.212,0.076-0.361,0.11-0.429,0.107c-0.184,0.033-0.41,0.04-0.669,0.044c-0.26,0.004-0.537,0.007-0.831-0.007
	c-0.379-0.02-0.811-0.024-1.262-0.014c-0.467,0.012-0.911,0.059-1.339,0.141c-0.437,0.082-0.808,0.236-1.147,0.443
	c-0.323,0.226-0.554,0.517-0.677,0.901c-0.085,0.134-0.202,0.396-0.36,0.777c-0.157,0.391-0.324,0.78-0.484,1.204
	c-0.168,0.407-0.319,0.815-0.459,1.197c-0.149,0.381-0.239,0.637-0.282,0.782c-0.002,0.035-0.013,0.077-0.031,0.11
	c-0.019,0.034-0.031,0.086-0.034,0.153c0.146,0.008,0.414,0.031,0.818,0.069c0.414,0.038,0.827,0.084,1.274,0.143
	c0.438,0.057,0.851,0.103,1.239,0.148c0.387,0.037,0.654,0.051,0.792,0.058c0.069,0.004,0.221,0.063,0.44,0.187
	c0.228,0.117,0.37,0.217,0.436,0.291c0.038,0.105,0.052,0.175,0.05,0.21c-0.001,0.034-0.023,0.12-0.074,0.264l-2.346,1.205
	c0.056,0.253,0.213,0.425,0.459,0.508c0.067,0.038,0.285,0.187,0.635,0.455c0.366,0.271,0.574,0.436,0.648,0.509
	c0.032,0.071,0.045,0.141,0.042,0.21c-0.021,0.398-0.198,0.666-0.527,0.83c-0.32,0.166-0.707,0.284-1.16,0.366
	c-0.445,0.081-0.909,0.162-1.363,0.251c-0.472,0.088-0.85,0.208-1.143,0.365c0.664,0.207,1.094,0.609,1.297,1.208
	s0.38,1.215,0.52,1.86c0.141,0.647,0.344,1.229,0.604,1.736c0.251,0.505,0.791,0.784,1.602,0.826l0.207,0.009l1.833-0.331
	c0.104,0.005,0.312-0.001,0.607-0.021c0.304-0.019,0.643-0.054,1.016-0.086c0.374-0.034,0.748-0.067,1.122-0.099
	c0.374-0.034,0.67-0.071,0.888-0.094l0.26,0.014l0.154,0.008c0.032,0.035,0.097,0.134,0.176,0.277
	c0.08,0.15,0.176,0.303,0.271,0.472c0.096,0.16,0.193,0.304,0.273,0.429c0.08,0.134,0.12,0.213,0.117,0.248
	c0.373,0.339,0.979,0.664,1.81,0.974c0.834,0.302,1.683,0.604,2.534,0.889c0.85,0.304,1.631,0.585,2.344,0.863
	c0.711,0.296,1.131,0.56,1.265,0.808c0.102,0.222,0.266,0.585,0.507,1.1c0.234,0.503,0.491,1.063,0.765,1.657
	c0.263,0.592,0.512,1.158,0.735,1.689c0.225,0.522,0.362,0.893,0.42,1.112c0.58-0.862,1.235-1.505,1.966-1.925
	c0.731-0.431,1.624-0.61,2.676-0.558c0.035,0.002,0.109,0.066,0.206,0.201c0.107,0.127,0.188,0.226,0.254,0.307
	c0.03,0.071,0.076,0.194,0.137,0.371c0.059,0.185,0.137,0.37,0.213,0.574c0.076,0.201,0.154,0.388,0.23,0.573
	c0.086,0.178,0.159,0.285,0.227,0.323c0.099,0.074,0.302,0.171,0.6,0.273s0.603,0.221,0.943,0.343
	c0.323,0.119,0.646,0.222,0.936,0.306c0.299,0.084,0.496,0.129,0.608,0.134c-0.004,0.079,0,0.183,0.01,0.329
	c0.009,0.139,0.014,0.244,0.009,0.313c-0.005,0.104-0.02,0.241-0.046,0.396c-0.022,0.143-0.033,0.224-0.038,0.269l20.641-8.747
	L82.021,52.556z"/>
<path fill="#4EB95D" stroke="#FFFFFF" d="M73.105,109.855c-0.027,0.057-0.051,0.119-0.078,0.176
	c0.025,0.004,0.049,0.011,0.073,0.012C73.104,109.982,73.104,109.916,73.105,109.855z"/>
<path fill="#4EB95D" stroke="#FFFFFF" d="M160.88,149.154l-8.64-2.293l-4.083-10.613l-6.94-3.268l-4.492,1.227l-1.224,4.898
	l0.816,8.164l4.49,6.939l-6.123,5.307l-6.124,0.408v4.492l-12.248-0.408l-3.266,3.674l4.491,4.898l-1.633,5.715l5.307,2.041
	l-8.871,3.412c0.031,0.178,0.068,0.354,0.109,0.531c0.085,0.352,0.288,0.629,0.599,0.825c0.201,0.114,0.569,0.342,1.108,0.664
	c0.537,0.328,1.099,0.687,1.692,1.071c0.604,0.384,1.174,0.742,1.711,1.072c0.529,0.32,0.915,0.547,1.161,0.666
	c0.106-0.065,0.266-0.152,0.489-0.271c0.222-0.107,0.444-0.236,0.684-0.363c0.232-0.129,0.464-0.252,0.677-0.363
	c0.221-0.108,0.391-0.205,0.498-0.27l0.156,0.01c1.063,0.055,1.995,0.23,2.794,0.521c0.8,0.281,1.563,0.591,2.291,0.912
	c0.728,0.313,1.465,0.619,2.219,0.908c0.75,0.279,1.587,0.451,2.553,0.502l0.467,0.021c0.361,0.02,0.741,0.029,1.14,0.033
	c0.416,0.004,0.709,0,0.881,0.01c0.257-0.266,0.417-0.508,0.461-0.723c0.044-0.205,0.085-0.479,0.104-0.842
	c0.047-0.949,0.017-1.896-0.073-2.824c-0.103-0.922-0.22-1.861-0.37-2.805c-0.142-0.941-0.267-1.898-0.357-2.855
	c-0.09-0.965-0.11-1.928-0.061-2.875c0.025-0.5,0.071-1.068,0.137-1.727c0.069-0.65,0.195-1.287,0.392-1.894
	c0.187-0.61,0.439-1.16,0.776-1.664c0.319-0.493,0.754-0.868,1.303-1.127l7.885-3.64c-0.084-0.36-0.065-0.688,0.051-0.976
	c0.127-0.308,0.281-0.567,0.475-0.808c0.482,0.164,1.009,0.223,1.557,0.183c0.551-0.043,1.09-0.144,1.607-0.317
	c0.52-0.164,1.029-0.371,1.527-0.612c0.479-0.236,0.906-0.492,1.283-0.759c0.373,0.166,0.742,0.386,1.074,0.67
	c0.35,0.275,0.698,0.554,1.049,0.822c0.365,0.271,0.719,0.494,1.088,0.687l8.967-11.123L160.88,149.154z"/>
<path fill="#4EB95D" stroke="#FFFFFF" d="M86.103,167.273l1.633-4.082l-3.266-4.898l1.225-6.938l16.33-2.449l2.858-9.391
	l7.348-5.308v-4.897l-2.857-4.899l1.224-4.082l-9.798-6.125l-9.798,12.25l-8.981-6.941l-5.636-3.14
	c0.122,0.145,0.244,0.287,0.361,0.451c0.663,0.914,1.234,1.931,1.706,3.062c0.47,1.113,0.847,2.224,1.105,3.291
	c0.271,1.089,0.384,1.958,0.351,2.632l-0.014,0.258c-0.68-0.568-1.162-1.313-1.46-2.252c-0.282-0.933-0.581-1.865-0.889-2.779
	c-0.308-0.916-0.735-1.717-1.289-2.401c-0.553-0.687-1.408-1.059-2.573-1.116c-0.076,1.482-0.183,2.906-0.304,4.26
	c-0.12,1.359-0.274,2.69-0.461,3.988c-0.187,1.308-0.417,2.608-0.684,3.928c-0.255,1.32-0.55,2.675-0.863,4.076l-0.012,0.215
	l-0.01,0.218c0.072-0.074,0.215-0.154,0.436-0.254c0.221-0.095,0.38-0.14,0.482-0.134c0.069,0.004,0.135,0.06,0.208,0.166
	c0.064,0.117,0.129,0.205,0.203,0.287c0.029,0.104,0.043,0.176,0.042,0.211c-0.012,0.239-0.127,0.451-0.326,0.623
	c-0.208,0.162-0.431,0.308-0.689,0.44c-0.256,0.133-0.523,0.258-0.79,0.41c-0.275,0.148-0.465,0.305-0.578,0.479
	c-0.194,1.584-0.378,3.381-0.567,5.389c-0.189,2.016-0.5,4.059-0.899,6.123c-0.407,2.064-0.975,4.051-1.712,5.943
	c-0.727,1.9-1.718,3.504-2.953,4.814c-0.072,0.073-0.323,0.227-0.742,0.473c-0.419,0.25-0.865,0.502-1.347,0.789
	c-0.471,0.271-0.91,0.533-1.312,0.783c-0.401,0.237-0.66,0.397-0.767,0.463l-0.496,0.397l-0.011,0.215l-0.012,0.261
	c0.114,0.473,0.389,0.832,0.845,1.08c0.444,0.256,0.927,0.461,1.428,0.637c0.503,0.172,0.947,0.299,1.34,0.389
	c0.375,0.086,0.569,0.199,0.562,0.34l-0.16,3.184c0.181,0.01,0.505,0.088,1,0.217c0.496,0.128,0.818,0.23,0.987,0.31
	c0.111,0.039,0.356,0.164,0.761,0.356c0.397,0.201,0.81,0.416,1.238,0.652c0.43,0.236,0.852,0.449,1.24,0.643
	c0.405,0.203,0.659,0.32,0.76,0.369c0.238,0.08,0.683,0.188,1.315,0.326c0.625,0.133,1.302,0.271,2.023,0.396
	c0.721,0.123,1.389,0.241,2.023,0.344c0.637,0.104,1.083,0.158,1.324,0.173c0.238,0.08,0.394,0.243,0.459,0.5
	c0.03,0.077,0.125,0.266,0.282,0.575c0.159,0.302,0.341,0.64,0.538,1.007c0.189,0.362,0.363,0.7,0.503,1.01
	c0.149,0.313,0.25,0.516,0.313,0.631c0.105-0.029,0.274-0.09,0.493-0.166c0.212-0.074,0.44-0.15,0.669-0.225
	c0.238-0.082,0.458-0.158,0.679-0.242c0.22-0.074,0.361-0.129,0.431-0.162l0.269,0.016l0.215,0.012
	c0.1,0.082,0.335,0.217,0.723,0.408c0.075,0.039,0.161,0.082,0.241,0.123v-4.844L86.103,167.273z"/>
<path fill="#4EB95D" stroke="#FFFFFF" d="M115.905,178.296l1.633-5.715l-4.491-4.899l3.266-3.673l12.248,0.408v-4.492l6.124-0.407
	l6.124-5.308l-4.491-6.94l-0.816-8.164l-3.674-6.938l-4.491,6.123h-4.49l-1.225-7.351l-4.491,1.636l-4.899-3.267v4.897l-7.348,5.308
	l-2.858,9.391l-16.33,2.449l-1.225,6.938l3.266,4.898l-1.633,4.082l-4.082,2.857v4.844c0.311,0.158,0.644,0.324,1,0.494
	c0.448,0.223,0.871,0.428,1.275,0.627c0.388,0.201,0.624,0.316,0.691,0.355c0.46,0.127,1.026,0.241,1.688,0.325
	c0.669,0.087,1.367,0.164,2.089,0.238c0.725,0.067,1.447,0.131,2.172,0.187c0.725,0.057,1.361,0.104,1.931,0.135l0.483,0.024
	l1.485,0.072l0.527,0.026c0.07-0.039,0.152-0.104,0.243-0.211c0.091-0.102,0.166-0.184,0.204-0.25l1.94-2.617
	c0.071-0.032,0.218-0.043,0.453-0.049c0.235-0.004,0.381-0.016,0.46-0.01c0.241,0.012,0.665,0.172,1.273,0.461
	c0.607,0.301,1.315,0.682,2.122,1.146c0.807,0.474,1.681,0.967,2.605,1.518c0.924,0.547,1.823,1.078,2.688,1.598
	c0.856,0.521,1.646,0.992,2.368,1.427c0.723,0.418,1.295,0.739,1.709,0.937c0.347,0.155,0.559,0.399,0.646,0.725
	c0.097,0.316,0.157,0.666,0.189,1.049c0.018,0.188,0.044,0.379,0.078,0.566l8.871-3.412L115.905,178.296z"/>
<path fill="#4EB95D" stroke="#FFFFFF" d="M156.693,25.632c-0.053-0.146-0.103-0.298-0.148-0.449l-5.122-1.206l-13.88-0.816
	l-16.366-6.694c-0.012,0.046-0.021,0.091-0.034,0.138c-0.203,0.751-0.459,1.525-0.758,2.323c-0.31,0.798-0.657,1.524-1.045,2.18
	c-0.372,0.664-0.775,1.201-1.213,1.617l5.128,6.152l-2.042,0.817l2.042,10.206l-1.191,0.917l0.667,1.027l9.129,0.566l2.335,1.982
	l6.581-0.284l4.813,5.59l1.522,0.11l2.271-10.316l4.082-0.816l4.385-11.694C157.357,26.882,156.973,26.437,156.693,25.632z"/>
<polygon fill="#18844E" stroke="#FFFFFF" points="140.773,44.107 134.194,44.391 131.858,42.409 122.729,41.843 122.063,40.816 
	117.946,43.983 118.763,47.249 121.212,56.23 122.846,56.639 124.071,59.904 130.194,59.496 131.011,63.987 138.768,63.17 
	139.175,59.496 144.893,59.904 147.111,49.808 145.587,49.698 "/>
<path fill="#4CB85D" d="M251.001,162.858c-0.138-0.478-0.299-0.933-0.485-1.405c-0.191-0.457-0.353-0.91-0.488-1.367
	c-0.144-0.437-0.213-0.861-0.191-1.289c0.023-0.403,0.135-0.805,0.344-1.157c0.205-0.38,0.315-0.778,0.338-1.243
	c0.043-0.822-0.166-1.706-0.639-2.654c-0.479-0.938-1.07-1.646-1.799-2.143c0.449-0.688,0.773-1.251,0.958-1.697
	c0.188-0.447,0.306-1.021,0.343-1.729c0.021-0.416-0.005-0.896-0.078-1.448c-0.086-0.532-0.223-1.046-0.431-1.515
	c-0.2-0.465-0.464-0.877-0.771-1.229c-0.328-0.34-0.727-0.534-1.231-0.562c-0.082-0.002-0.253-0.002-0.528,0.004
	c-0.265,0.009-0.447,0.039-0.531,0.074c-0.367,1.647-0.883,2.942-1.508,3.885c-0.625,0.945-1.395,1.679-2.295,2.222
	c-0.902,0.543-1.959,0.978-3.156,1.302c-1.205,0.348-2.563,0.704-4.072,1.073c-0.088,0.078-0.202,0.325-0.323,0.733
	c-0.122,0.412-0.218,0.684-0.265,0.803l-0.662,2.088c-0.1,0.289-0.264,0.559-0.512,0.814c-0.246,0.252-0.49,0.494-0.756,0.713
	c-0.256,0.213-0.49,0.427-0.683,0.615c-0.192,0.194-0.306,0.401-0.315,0.615l-0.017,0.303l0.462,2.149l-0.027,0.554l-0.025,0.51
	c-0.004,0.08-0.055,0.221-0.122,0.418c-0.07,0.211-0.146,0.422-0.218,0.65c-0.072,0.23-0.145,0.439-0.215,0.648
	c-0.072,0.199-0.119,0.32-0.119,0.359l1.652,1.832c0.323,0.227,0.447,0.446,0.373,0.676c-0.074,0.232-0.105,0.678-0.102,1.338
	c-0.016,0.334-0.043,0.656-0.077,0.961c-0.037,0.313-0.037,0.507,0.002,0.59c-0.004,0.052,0.085,0.126,0.239,0.234
	c0.158,0.107,0.334,0.238,0.511,0.373c0.177,0.129,0.354,0.238,0.513,0.33c0.156,0.098,0.254,0.164,0.303,0.207
	c0.078,0.098,0.187,0.201,0.299,0.332c0.115,0.125,0.171,0.211,0.171,0.252c-0.005,0.078-0.005,0.28,0,0.6
	c0.005,0.313-0.003,0.638-0.019,0.962c-0.018,0.336-0.045,0.649-0.08,0.971c-0.037,0.306-0.057,0.526-0.063,0.647l3.021,3.334
	c-0.097,0.086-0.223,0.322-0.383,0.729c-0.173,0.407-0.238,0.671-0.203,0.791c0.035,0.095,0.055,0.177,0.045,0.269
	c-0.002,0.082,0.033,0.227,0.104,0.431c0.188,0.437,0.397,0.937,0.614,1.495c0.225,0.58,0.43,0.936,0.635,1.066
	c0.165,0.01,0.447,0.043,0.829,0.104c0.403,0.063,0.807,0.143,1.247,0.227c0.421,0.084,0.846,0.166,1.271,0.246
	c0.399,0.082,0.69,0.158,0.861,0.207l1.596,0.568l0.243,0.013l0.243,0.011c0.68-0.961,1.235-1.965,1.688-3.021
	c0.448-1.063,0.83-2.134,1.129-3.233c0.31-1.082,0.578-2.185,0.816-3.32c0.253-1.135,0.503-2.278,0.771-3.424
	c0.049-0.158,0.115-0.472,0.182-0.928c0.063-0.451,0.127-0.947,0.227-1.449c0.086-0.522,0.161-0.996,0.226-1.432
	c0.062-0.434,0.099-0.746,0.108-0.957c0.601-0.186,0.938-0.4,1.029-0.671c0.096-0.259,0.161-0.601,0.184-1.017
	C251.208,163.802,251.143,163.311,251.001,162.858z"/>
<path fill="#4CB85D" d="M51.257,214.423l-0.338-5.908l1.996-3.889l3.058-2.772l0.492-2.073l2.204,0.205l-1.218-1.035l12.801,4.51
	l4.795,4.535l1.609,0.154l-0.364,0.65l3.162,2.047l0.7,2.15l-1.219,1.607l1.349-0.83l0.025-2.877l2.074,1.816l1.27,3.627
	l-1.477,3.188l-6.039,8.477l0.13,1.268l-3.784,7.699l-2.282,2.021l-1.347,0.7l-1.166-0.907l-2.282,0.439l0.338-0.958l-5.494-0.13
	l-2.229,0.388l-2.125,2.126l-4.718-2.256l3.421-6.143l0.156-3.084l2.178-5.623l-4.277-4.95L51.257,214.423"/>
<path fill="#4CB85D" d="M167.71,207.99l1.75,3.732l7.335,1.652l1.584,2.806l4.426,1.454l-9.744,0.762l-9.147,3.235l-4.458-1.32
	l-0.961-2.015l-0.563,1.09l-2.41-0.1l-0.099,3.633l1.816,3.469l0.264,5.78l-3.896,4.525l-6.014,2.477l-0.396-1.815l-4.129-5.946
	l-0.396-7.925l-2.081-6.411l0.331-2.312l1.586-3.136l2.278-1.061l6.869,2.711l2.28,2.41l-1.155,0.462l2.806,0.496l0.662-1.29
	l1.254,0.135l1.65-3.336l1.719-0.826l0.661-2.248l-2.049-0.759l-0.759-2.97l0.496-1.952l3.897-3.634l4.128,3.138L167.71,207.99"/>
<path fill="#4CB85D" d="M96.263,213.995l0.806-2.508l-3.807-4.637l0.216-3.62l2.939-2.472l3.001-0.559l10.515,6.155l3.231,4.064
	l5.835-3.746l2.223,3.269l-1.764,0.466l0.465,1.606l-1.795,0.617l-1.392-1.451l-1.174,1.053l0.4,1.545l3.156,0.989l-3.31,3.032
	l1.021,1.391l2.782-0.926l-0.493,3.462l2.256,0.156l4.703,11.719l-1.083,3.402l-2.536,3.156h-1.639l-1.208-1.825l2.289-3.558
	l-2.69,1.083l-1.546-1.546l-1.454,0.711l-3.742-1.731l-3.373,0.093l-3.34,2.164l-1.452-1.299l0.06-1.731l-1.236-1.205l1.547-3.001
	l2.101-1.545l3.033,2.07l1.979-1.174l-2.691-2.907l0.093-1.486l-1.113,0.773l-4.391-0.711l-4.763-4.298L96.263,213.995"/>
<path fill="#4CB85D" d="M7.038,210.042l1.736,0.183l3.914-3.162l2.979-0.39l10.861,2.074l2.59,2.721v2.125l3.811,5.238l3.447,2.33
	l0.544,1.891l-1.736,4.07l0.465,4.978l-1.736,1.813l-8.993,1.478l-10.159-3.37l-1.944-1.813l-2.463-0.649l-0.466-1.271l-1.866-1.192
	l-0.647-4.198l-3.5-4.406l0.701-3.135l2.099-1.245L7.038,210.042"/>
<g>
	<path fill="#4CB85D" d="M208.126,207.029c-0.166,0.45-0.483,0.38-0.831,0.252c-0.271-0.099-0.548-0.188-0.83-0.248
		c-0.356-0.073-0.726-0.092-1.078-0.177c-0.313-0.078-0.611-0.311-0.913-0.307c-0.764,0.01-1.476-0.004-1.716-0.821
		c-0.518,0.627-1.003,1.221-1.509,1.838c-0.998-0.466-2.003-0.728-2.711-1.331c-0.557-0.475-0.75-1.372-1.123-2.119
		c0.236-0.204,0.429-0.368,0.634-0.544c-0.714-0.416-1.41-0.759-2.032-1.203c-0.632-0.454-1.228-0.99-1.171-1.948
		c-0.474-0.225-0.966-0.457-1.51-0.714c0.156-0.986,1.184-0.85,2.081-1.357c-0.24-0.117-0.406-0.202-0.572-0.284
		c-0.036-0.311,0.755-0.377,0.246-0.833c-0.416,0.277-0.835,0.557-1.272,0.848c-0.196,0.254-0.371,0.589-0.644,0.804
		c-0.479,0.376-0.805,0.763-0.848,1.422c-0.022,0.34-0.339,0.659-0.576,0.943c-0.511,0.169-0.811-0.739-1.192-0.321
		c0.175,0.481,0.549,0.976,0.429,1.271c-0.455,1.129-1.021,1.337-2.245,0.976c-0.333,0.981-0.303,2.175-1.563,2.838
		c0.857,0.188,1.453,0.316,1.999,0.437c0.163,1.457-1.373,1.634-1.686,2.74c0.341,0.343,0.7,0.702,1.139,1.14
		c0.487-0.854,0.99-0.371,1.481-0.141c0.179,0.082,0.376,0.184,0.492,0.332c0.603,0.76,1.351,1.246,2.33,1.318
		c0.332,0.023,0.667-0.009,0.996,0.007c0.309,0.016,0.615,0.063,1.134,0.116c-0.364,0.666-0.654,1.133-0.874,1.629
		c-0.133,0.299-0.155,0.649-0.226,0.964c0.557,0.11,0.985,0.192,1.509,0.296c-0.382,0.424-0.675,0.673-0.862,0.985
		c-0.117,0.196-0.191,0.598-0.081,0.721c0.906,1.006,0.366,2.05,0.128,3.15c0.438,0.567,1.855,0.021,1.657,1.443
		c-0.792-0.063-1.588-0.041-2.157,0.72c-0.15,0.201-0.56,0.21-0.897,0.322c0.466,0.307,0.881,0.482,1.154,0.785
		c0.463,0.516,1.017,0.746,1.745,0.837c0.116,1.242,1.185,1.797,2.002,2.554c1.267,1.174,1.831,2.742,2.299,4.322
		c0.299,1.007-0.502,1.861-1.55,1.906c-0.253,0.009-0.503,0.068-0.855,0.118c-0.824-0.964-2.303-1.039-3.378-2.097
		c0-0.623,0-1.403,0-2.134c-1.335-0.662-2.287-0.705-3.868-0.161c0.937,0.451,1.24,1.255,1.47,2.107
		c0.032,0.125,0.135,0.276,0.245,0.326c0.528,0.237,0.587,0.682,0.544,1.229c0.53-0.24,1.03-0.722,1.548-0.01
		c0.484,2.002-0.836,2.943-2.442,3.793c0.281,0.093,0.513,0.114,0.673,0.234c0.682,0.512,1.264,0.647,1.77-0.245
		c0.088-0.154,0.456-0.15,0.927-0.284c-0.075,1.048-0.138,1.899-0.199,2.748c0.026-0.003,0.055-0.005,0.083-0.007
		c-0.104,0.438-0.205,0.876-0.313,1.347c0.255,0,0.367,0,0.516,0c0.069-0.647,0.194-1.265,1.04-1.329
		c1.245-0.095,0.941,0.932,1.01,1.728c0.444-0.258,0.713-0.412,1.096-0.634c0.305,0.368,0.629,0.766,0.876,1.066
		c1.331,0,1.552-0.187,1.832-1.41c0.167-0.731,0.167-0.731,0.952-1.272c0.773,0.483,1.175,1.152,1.017,2.14
		c0.181,0.04,0.346,0.076,0.563,0.126c0-0.328,0-0.579,0-0.842c0.469-0.781,1.174-0.156,1.809-0.237
		c0.364-0.473,0.739-0.96,1.115-1.446c-0.04-0.07-0.079-0.14-0.119-0.208c-0.289,0.104-0.576,0.207-0.727,0.261
		c-1.73-0.69-2.867-1.823-3.157-3.657c0.364-0.191,0.692-0.364,1.067-0.563c-0.119-0.233-0.256-0.496-0.441-0.858
		c0.36-0.404,0.726-0.813,1.09-1.224c0.042,0.021,0.083,0.044,0.126,0.069c0.019-0.227,0.036-0.451,0.056-0.693
		c0.938-0.434,1.724,0.108,2.63,0.317c-1.063-0.901-1.855-1.812-0.892-3.266c1.178,0.387,1.109-1.252,2.127-1.375
		c-0.528-0.908,0.434-1.097,0.772-1.799c-0.526,0.072-0.93,0.127-1.554,0.213c0.067-0.479,0.115-0.804,0.174-1.227
		c-1.313,0.437-1.634-0.854-2.039-1.525c-0.354-0.585-0.978-1.756,0.297-2.369c-0.098-0.293-0.17-0.508-0.247-0.74
		c0.817-0.999,1.633-1.986,2.429-2.987c0.091-0.114,0.029-0.341,0.1-0.485c0.108-0.235,0.218-0.52,0.416-0.656
		c0.883-0.621,1.558-1.329,1.588-2.502c0.007-0.281,0.287-0.543,0.389-0.833c0.149-0.423,0.172-0.788-0.225-1.178
		c-0.428-0.426-0.706-0.997-1.063-1.524c-0.204,0.095-0.36,0.169-0.562,0.262c-0.488-0.442-1.228-0.667-1.131-1.542"/>
	<path fill="#4CB85D" d="M187.46,196.57c-0.559-0.419-1.117-0.837-1.487-1.115c-0.437,0.438-0.769,0.77-1.262,1.263
		c-0.012,0.486,0.704,0.021,1.03,0.275c-0.071,0.272-0.144,0.544-0.27,1.029c0.394-0.161,0.688-0.219,0.901-0.384
		c0.389-0.294,0.727-0.652,1.087-0.984"/>
	<path fill="#4CB85D" d="M216.758,217.069c-0.167-0.082-0.469-0.153-0.479-0.252c-0.145-1.504-1.175-2.295-2.343-2.986
		c-0.151-0.09-0.289-0.202-0.434-0.304c0.045-0.06,0.093-0.119,0.138-0.18c0.149,0.121,0.297,0.242,0.51,0.417
		c0.437-0.381,0.962-0.799,1.438-1.266c0.446-0.437,0.842-0.931,1.351-1.5c0.513,0.905,1.007,1.779,1.536,2.711
		c-0.189,0.141-0.364,0.269-0.568,0.419c0.193,0.578,0.476,1.178-0.563,1.398c-0.497,0.104-0.58,1.094-0.254,1.792"/>
</g>
</svg>
