<!-- Generated by IcoMoon.io -->
<svg version="1.1" xmlns="http://www.w3.org/2000/svg" width="44" height="32" viewBox="0 0 44 32">
<title>cloud</title>
<path d="M22.194 0c3.303 0 6.606 1.239 9.135 3.768 2.116 2.116 3.355 4.852 3.716 7.639 5.213 0.465 9.342 4.903 9.342 10.271 0 5.677-4.645 10.323-10.323 10.323h-25.29c-4.852 0-8.774-3.923-8.774-8.774s3.923-8.774 8.774-8.774h0.619c-0.465-3.819 0.774-7.742 3.716-10.684 2.477-2.529 5.781-3.768 9.084-3.768zM22.194 10.839c-0.258 0-0.465 0.052-0.671 0.258l-5.677 5.161c-0.413 0.361-0.465 1.084-0.103 1.445s1.084 0.413 1.445 0.052l3.974-3.613v11.148c0 0.568 0.465 1.032 1.032 1.032s1.032-0.465 1.032-1.032v-11.097l3.974 3.613c0.413 0.361 1.084 0.361 1.445-0.052s0.361-1.084-0.103-1.445l-5.677-5.161c-0.103-0.206-0.413-0.31-0.671-0.31z"></path>
</svg>
